<svg width="24" height="24" xmlns="http://www.w3.org/2000/svg">

 <g>
  <title>background</title>
  <rect fill="none" id="canvas_background" height="402" width="582" y="-1" x="-1"/>
 </g>
 <g>
  <title fill="#333333">Layer 1</title>
  <path id="svg_1" fill="#333333" d="m14.6069,10.7475c0.8193,0.634 0.8193,1.871 0,2.505c-2.1591,1.6706 -4.57,2.9874 -7.14253,3.901l-0.46605,0.1656c-1.02352,0.3635 -2.10033,-0.329 -2.23831,-1.3811c-0.33968,-2.5901 -0.33968,-5.2859 0,-7.87601c0.13798,-1.05208 1.21478,-1.74456 2.23831,-1.38104l0.46605,0.16552c2.57253,0.91366 4.98343,2.23044 7.14253,3.90103zm-0.918,1.3186c0.0433,-0.0334 0.0433,-0.0988 0,-0.1322c-2.0333,-1.5734 -4.30385,-2.81348 -6.72655,-3.67393l-0.46605,-0.16553c-0.10021,-0.03559 -0.23194,0.0323 -0.24902,0.1626c-0.32271,2.46056 -0.32271,5.02536 0,7.48596c0.01708,0.1303 0.14881,0.1981 0.24902,0.1626l0.46605,-0.1656c2.4227,-0.8604 4.69325,-2.1005 6.72655,-3.6739z" clip-rule="evenodd" fill-rule="evenodd"/>
  <path id="svg_2" fill="#333333" d="m18,6.25c0.4142,0 0.75,0.33579 0.75,0.75l0,10c0,0.4142 -0.3358,0.75 -0.75,0.75c-0.4142,0 -0.75,-0.3358 -0.75,-0.75l0,-10c0,-0.41421 0.3358,-0.75 0.75,-0.75z" clip-rule="evenodd" fill-rule="evenodd"/>
 </g>
</svg>