<svg width="24" height="24" xmlns="http://www.w3.org/2000/svg">

 <g>
  <title>background</title>
  <rect fill="none" id="canvas_background" height="402" width="582" y="-1" x="-1"/>
 </g>
 <g>
  <title fill="#333333">Layer 1</title>
  <path id="svg_1" fill="#333333" d="m6.75,7c0,-0.41421 -0.33579,-0.75 -0.75,-0.75c-0.41421,0 -0.75,0.33579 -0.75,0.75l0,10c0,0.4142 0.33579,0.75 0.75,0.75c0.41421,0 0.75,-0.3358 0.75,-0.75l0,-10z"/>
  <path id="svg_2" fill="#333333" d="m9.39314,13.2525c-0.81935,-0.634 -0.81935,-1.871 0,-2.505c2.15906,-1.67059 4.56996,-2.98737 7.14246,-3.90102l0.4661,-0.16553c1.0235,-0.36352 2.1003,0.32897 2.2383,1.38104c0.3397,2.59011 0.3397,5.28591 0,7.87601c-0.138,1.0521 -1.2148,1.7446 -2.2383,1.3811l-0.4661,-0.1656c-2.5725,-0.9136 -4.9834,-2.2304 -7.14246,-3.901zm0.91796,-1.3186c-0.0433,0.0334 -0.0433,0.0988 0,0.1323c2.0333,1.5733 4.3038,2.8134 6.7265,3.6738l0.4661,0.1656c0.1002,0.0356 0.2319,-0.0323 0.249,-0.1626c0.3227,-2.4606 0.3227,-5.0254 0,-7.48596c-0.0171,-0.1303 -0.1488,-0.19818 -0.249,-0.16259l-0.4661,0.16552c-2.4227,0.86046 -4.6932,2.10053 -6.7265,3.67393z" clip-rule="evenodd" fill-rule="evenodd"/>
 </g>
</svg>